<mxfile host="app.diagrams.net" agent="Mozilla/5.0 (Windows NT 10.0; Win64; x64) AppleWebKit/537.36 (KHTML, like Gecko) Chrome/128.0.0.0 Safari/537.36" version="24.7.10">
  <diagram name="Página-1" id="OVypDS5loaO4sWUZ6Tkg">
    <mxGraphModel dx="3827" dy="2760" grid="1" gridSize="10" guides="1" tooltips="1" connect="1" arrows="1" fold="1" page="1" pageScale="1" pageWidth="827" pageHeight="1169" math="0" shadow="0">
      <root>
        <mxCell id="0" />
        <mxCell id="1" parent="0" />
        <mxCell id="u-yBkC2X34SG5aHqilfK-27" value="" style="rounded=0;whiteSpace=wrap;html=1;gradientColor=none;" parent="1" vertex="1">
          <mxGeometry x="-718" y="-1040" width="610" height="770" as="geometry" />
        </mxCell>
        <mxCell id="u-yBkC2X34SG5aHqilfK-1" value="Cliente" style="shape=umlActor;verticalLabelPosition=bottom;verticalAlign=top;html=1;outlineConnect=0;points=[[0,0.3333333333333333,0,0,0],[0,1,0,0,0],[0.25,0.1,0,0,0],[0.5,0,0,0,0],[0.5,0.5,0,0,0],[0.75,0.1,0,0,0],[1,0.3333333333333333,0,0,0],[1,1,0,0,0]];" parent="1" vertex="1">
          <mxGeometry x="-780" y="-770" width="30" height="60" as="geometry" />
        </mxCell>
        <mxCell id="rdwGBLl-BB3dfzOJK9Kl-43" style="edgeStyle=orthogonalEdgeStyle;rounded=0;orthogonalLoop=1;jettySize=auto;html=1;" edge="1" parent="1" source="u-yBkC2X34SG5aHqilfK-10" target="u-yBkC2X34SG5aHqilfK-1">
          <mxGeometry relative="1" as="geometry">
            <Array as="points">
              <mxPoint x="-745" y="-660" />
              <mxPoint x="-765" y="-660" />
            </Array>
          </mxGeometry>
        </mxCell>
        <mxCell id="u-yBkC2X34SG5aHqilfK-10" value="Pessoa Física&lt;div&gt;&lt;br&gt;&lt;/div&gt;" style="shape=umlActor;verticalLabelPosition=bottom;verticalAlign=top;html=1;outlineConnect=0;" parent="1" vertex="1">
          <mxGeometry x="-780" y="-620" width="30" height="60" as="geometry" />
        </mxCell>
        <mxCell id="rdwGBLl-BB3dfzOJK9Kl-42" style="edgeStyle=orthogonalEdgeStyle;rounded=0;orthogonalLoop=1;jettySize=auto;html=1;" edge="1" parent="1" source="u-yBkC2X34SG5aHqilfK-11" target="u-yBkC2X34SG5aHqilfK-1">
          <mxGeometry relative="1" as="geometry">
            <Array as="points">
              <mxPoint x="-805" y="-660" />
              <mxPoint x="-765" y="-660" />
            </Array>
          </mxGeometry>
        </mxCell>
        <mxCell id="u-yBkC2X34SG5aHqilfK-11" value="&lt;div&gt;Pessoa Jurídica&lt;/div&gt;&lt;div&gt;&lt;br&gt;&lt;/div&gt;" style="shape=umlActor;verticalLabelPosition=bottom;verticalAlign=top;html=1;outlineConnect=0;" parent="1" vertex="1">
          <mxGeometry x="-790" y="-520" width="30" height="60" as="geometry" />
        </mxCell>
        <mxCell id="u-yBkC2X34SG5aHqilfK-19" value="Funcionário" style="shape=umlActor;verticalLabelPosition=bottom;verticalAlign=top;html=1;outlineConnect=0;" parent="1" vertex="1">
          <mxGeometry x="-70" y="-770" width="30" height="60" as="geometry" />
        </mxCell>
        <mxCell id="rdwGBLl-BB3dfzOJK9Kl-46" style="edgeStyle=orthogonalEdgeStyle;rounded=0;orthogonalLoop=1;jettySize=auto;html=1;" edge="1" parent="1" source="u-yBkC2X34SG5aHqilfK-21" target="u-yBkC2X34SG5aHqilfK-19">
          <mxGeometry relative="1" as="geometry">
            <Array as="points">
              <mxPoint x="-20" y="-500" />
              <mxPoint x="-20" y="-740" />
            </Array>
          </mxGeometry>
        </mxCell>
        <mxCell id="u-yBkC2X34SG5aHqilfK-21" value="Gerente" style="shape=umlActor;verticalLabelPosition=bottom;verticalAlign=top;html=1;outlineConnect=0;" parent="1" vertex="1">
          <mxGeometry x="-70" y="-530" width="30" height="60" as="geometry" />
        </mxCell>
        <mxCell id="u-yBkC2X34SG5aHqilfK-29" value="&lt;b&gt;&lt;font style=&quot;font-size: 18px;&quot;&gt;Sistema Bancário&lt;/font&gt;&lt;/b&gt;" style="text;html=1;align=center;verticalAlign=middle;whiteSpace=wrap;rounded=0;" parent="1" vertex="1">
          <mxGeometry x="-500" y="-1030" width="155" height="30" as="geometry" />
        </mxCell>
        <mxCell id="u-yBkC2X34SG5aHqilfK-31" value="Abrir Conta" style="ellipse;whiteSpace=wrap;html=1;" parent="1" vertex="1">
          <mxGeometry x="-545" y="-970" width="120" height="70" as="geometry" />
        </mxCell>
        <mxCell id="u-yBkC2X34SG5aHqilfK-48" style="edgeStyle=orthogonalEdgeStyle;rounded=0;orthogonalLoop=1;jettySize=auto;html=1;" parent="1" source="u-yBkC2X34SG5aHqilfK-32" target="u-yBkC2X34SG5aHqilfK-31" edge="1">
          <mxGeometry relative="1" as="geometry" />
        </mxCell>
        <mxCell id="u-yBkC2X34SG5aHqilfK-32" value="Conta Corrente" style="ellipse;whiteSpace=wrap;html=1;" parent="1" vertex="1">
          <mxGeometry x="-610" y="-860" width="120" height="80" as="geometry" />
        </mxCell>
        <mxCell id="u-yBkC2X34SG5aHqilfK-47" style="edgeStyle=orthogonalEdgeStyle;rounded=0;orthogonalLoop=1;jettySize=auto;html=1;" parent="1" source="u-yBkC2X34SG5aHqilfK-33" target="u-yBkC2X34SG5aHqilfK-31" edge="1">
          <mxGeometry relative="1" as="geometry" />
        </mxCell>
        <mxCell id="rdwGBLl-BB3dfzOJK9Kl-45" style="edgeStyle=orthogonalEdgeStyle;rounded=0;orthogonalLoop=1;jettySize=auto;html=1;" edge="1" parent="1" source="u-yBkC2X34SG5aHqilfK-40" target="u-yBkC2X34SG5aHqilfK-19">
          <mxGeometry relative="1" as="geometry" />
        </mxCell>
        <mxCell id="u-yBkC2X34SG5aHqilfK-40" value="Caixa" style="shape=umlActor;verticalLabelPosition=bottom;verticalAlign=top;html=1;outlineConnect=0;" parent="1" vertex="1">
          <mxGeometry x="-70" y="-620" width="30" height="60" as="geometry" />
        </mxCell>
        <mxCell id="u-yBkC2X34SG5aHqilfK-46" value="" style="endArrow=none;html=1;rounded=0;" parent="1" source="u-yBkC2X34SG5aHqilfK-1" target="u-yBkC2X34SG5aHqilfK-31" edge="1">
          <mxGeometry width="50" height="50" relative="1" as="geometry">
            <mxPoint x="-650" y="20" as="sourcePoint" />
            <mxPoint x="-600" y="-30" as="targetPoint" />
          </mxGeometry>
        </mxCell>
        <mxCell id="u-yBkC2X34SG5aHqilfK-49" value="" style="endArrow=none;html=1;rounded=0;" parent="1" source="u-yBkC2X34SG5aHqilfK-31" target="u-yBkC2X34SG5aHqilfK-19" edge="1">
          <mxGeometry width="50" height="50" relative="1" as="geometry">
            <mxPoint x="610" as="sourcePoint" />
            <mxPoint x="660" y="-50" as="targetPoint" />
          </mxGeometry>
        </mxCell>
        <mxCell id="u-yBkC2X34SG5aHqilfK-50" value="Tirar Extrato" style="ellipse;whiteSpace=wrap;html=1;" parent="1" vertex="1">
          <mxGeometry x="-610" y="-740" width="120" height="80" as="geometry" />
        </mxCell>
        <mxCell id="u-yBkC2X34SG5aHqilfK-51" value="Tirar Saldo" style="ellipse;whiteSpace=wrap;html=1;" parent="1" vertex="1">
          <mxGeometry x="-610" y="-630" width="120" height="80" as="geometry" />
        </mxCell>
        <mxCell id="rdwGBLl-BB3dfzOJK9Kl-1" value="Registrar Transação" style="ellipse;whiteSpace=wrap;html=1;" vertex="1" parent="1">
          <mxGeometry x="-260" y="-560" width="120" height="80" as="geometry" />
        </mxCell>
        <mxCell id="rdwGBLl-BB3dfzOJK9Kl-3" value="Fazer Depósito" style="ellipse;whiteSpace=wrap;html=1;" vertex="1" parent="1">
          <mxGeometry x="-270" y="-790" width="120" height="80" as="geometry" />
        </mxCell>
        <mxCell id="rdwGBLl-BB3dfzOJK9Kl-4" value="Encerrar Conta" style="ellipse;whiteSpace=wrap;html=1;" vertex="1" parent="1">
          <mxGeometry x="-560" y="-400" width="120" height="80" as="geometry" />
        </mxCell>
        <mxCell id="rdwGBLl-BB3dfzOJK9Kl-6" value="" style="endArrow=none;html=1;rounded=0;" edge="1" parent="1" source="u-yBkC2X34SG5aHqilfK-1" target="u-yBkC2X34SG5aHqilfK-50">
          <mxGeometry width="50" height="50" relative="1" as="geometry">
            <mxPoint x="-360" y="170" as="sourcePoint" />
            <mxPoint x="-310" y="120" as="targetPoint" />
          </mxGeometry>
        </mxCell>
        <mxCell id="rdwGBLl-BB3dfzOJK9Kl-8" value="" style="endArrow=none;html=1;rounded=0;entryX=0;entryY=0;entryDx=0;entryDy=0;exitX=0.5;exitY=0.5;exitDx=0;exitDy=0;exitPerimeter=0;" edge="1" parent="1" source="u-yBkC2X34SG5aHqilfK-1" target="u-yBkC2X34SG5aHqilfK-51">
          <mxGeometry width="50" height="50" relative="1" as="geometry">
            <mxPoint x="-490" y="310" as="sourcePoint" />
            <mxPoint x="-440" y="260" as="targetPoint" />
          </mxGeometry>
        </mxCell>
        <mxCell id="rdwGBLl-BB3dfzOJK9Kl-9" value="" style="endArrow=none;html=1;rounded=0;entryX=0.5;entryY=0.5;entryDx=0;entryDy=0;entryPerimeter=0;" edge="1" parent="1" source="rdwGBLl-BB3dfzOJK9Kl-4" target="u-yBkC2X34SG5aHqilfK-19">
          <mxGeometry width="50" height="50" relative="1" as="geometry">
            <mxPoint x="510" y="250" as="sourcePoint" />
            <mxPoint x="560" y="200" as="targetPoint" />
            <Array as="points">
              <mxPoint x="-380" y="-360" />
              <mxPoint x="-220" y="-310" />
              <mxPoint x="-130" y="-300" />
            </Array>
          </mxGeometry>
        </mxCell>
        <mxCell id="rdwGBLl-BB3dfzOJK9Kl-10" value="" style="endArrow=none;html=1;rounded=0;entryX=0;entryY=0;entryDx=0;entryDy=0;exitX=0.5;exitY=0.5;exitDx=0;exitDy=0;exitPerimeter=0;" edge="1" parent="1" source="rdwGBLl-BB3dfzOJK9Kl-2" target="rdwGBLl-BB3dfzOJK9Kl-4">
          <mxGeometry width="50" height="50" relative="1" as="geometry">
            <mxPoint x="-470" y="360" as="sourcePoint" />
            <mxPoint x="-420" y="310" as="targetPoint" />
          </mxGeometry>
        </mxCell>
        <mxCell id="rdwGBLl-BB3dfzOJK9Kl-19" value="" style="endArrow=classic;html=1;rounded=0;entryX=0.5;entryY=0;entryDx=0;entryDy=0;dashed=1;" edge="1" parent="1" source="rdwGBLl-BB3dfzOJK9Kl-3" target="rdwGBLl-BB3dfzOJK9Kl-1">
          <mxGeometry width="50" height="50" relative="1" as="geometry">
            <mxPoint x="-649" y="-20" as="sourcePoint" />
            <mxPoint x="-649" y="50" as="targetPoint" />
          </mxGeometry>
        </mxCell>
        <mxCell id="rdwGBLl-BB3dfzOJK9Kl-21" value="include" style="edgeLabel;html=1;align=center;verticalAlign=middle;resizable=0;points=[];" vertex="1" connectable="0" parent="rdwGBLl-BB3dfzOJK9Kl-19">
          <mxGeometry x="-0.2246" relative="1" as="geometry">
            <mxPoint as="offset" />
          </mxGeometry>
        </mxCell>
        <mxCell id="rdwGBLl-BB3dfzOJK9Kl-20" value="" style="endArrow=classic;html=1;rounded=0;entryX=0;entryY=0.5;entryDx=0;entryDy=0;dashed=1;" edge="1" parent="1" target="rdwGBLl-BB3dfzOJK9Kl-1">
          <mxGeometry width="50" height="50" relative="1" as="geometry">
            <mxPoint x="-532.8244531992086" y="-462.128146291077" as="sourcePoint" />
            <mxPoint x="-709" y="90" as="targetPoint" />
          </mxGeometry>
        </mxCell>
        <mxCell id="rdwGBLl-BB3dfzOJK9Kl-22" value="include" style="edgeLabel;html=1;align=center;verticalAlign=middle;resizable=0;points=[];" vertex="1" connectable="0" parent="rdwGBLl-BB3dfzOJK9Kl-20">
          <mxGeometry x="-0.0703" relative="1" as="geometry">
            <mxPoint as="offset" />
          </mxGeometry>
        </mxCell>
        <mxCell id="rdwGBLl-BB3dfzOJK9Kl-23" value="" style="endArrow=classic;html=1;rounded=0;exitX=0.5;exitY=1;exitDx=0;exitDy=0;entryX=0.5;entryY=0;entryDx=0;entryDy=0;dashed=1;" edge="1" parent="1" source="rdwGBLl-BB3dfzOJK9Kl-2" target="rdwGBLl-BB3dfzOJK9Kl-4">
          <mxGeometry width="50" height="50" relative="1" as="geometry">
            <mxPoint x="-260" y="450" as="sourcePoint" />
            <mxPoint x="-210" y="400" as="targetPoint" />
            <Array as="points" />
          </mxGeometry>
        </mxCell>
        <mxCell id="rdwGBLl-BB3dfzOJK9Kl-24" value="extends" style="edgeLabel;html=1;align=center;verticalAlign=middle;resizable=0;points=[];" vertex="1" connectable="0" parent="rdwGBLl-BB3dfzOJK9Kl-23">
          <mxGeometry x="-0.224" y="-3" relative="1" as="geometry">
            <mxPoint as="offset" />
          </mxGeometry>
        </mxCell>
        <mxCell id="rdwGBLl-BB3dfzOJK9Kl-26" value="caso houver saldo" style="whiteSpace=wrap;html=1;shape=mxgraph.basic.roundRectCallout;dx=30;dy=15;size=5;boundedLbl=1;" vertex="1" parent="1">
          <mxGeometry x="-660" y="-440" width="100" height="60" as="geometry" />
        </mxCell>
        <mxCell id="rdwGBLl-BB3dfzOJK9Kl-28" value="" style="endArrow=none;html=1;rounded=0;exitX=0.5;exitY=0.5;exitDx=0;exitDy=0;exitPerimeter=0;" edge="1" parent="1" source="u-yBkC2X34SG5aHqilfK-1" target="rdwGBLl-BB3dfzOJK9Kl-2">
          <mxGeometry width="50" height="50" relative="1" as="geometry">
            <mxPoint x="-610" y="340" as="sourcePoint" />
            <mxPoint x="-560" y="290" as="targetPoint" />
          </mxGeometry>
        </mxCell>
        <mxCell id="rdwGBLl-BB3dfzOJK9Kl-29" value="" style="endArrow=none;html=1;rounded=0;entryX=0;entryY=0.5;entryDx=0;entryDy=0;exitX=0.5;exitY=0.5;exitDx=0;exitDy=0;exitPerimeter=0;" edge="1" parent="1" source="u-yBkC2X34SG5aHqilfK-1" target="rdwGBLl-BB3dfzOJK9Kl-3">
          <mxGeometry width="50" height="50" relative="1" as="geometry">
            <mxPoint x="-270" y="190" as="sourcePoint" />
            <mxPoint x="-161.42640687119274" y="191.71572875253787" as="targetPoint" />
          </mxGeometry>
        </mxCell>
        <mxCell id="rdwGBLl-BB3dfzOJK9Kl-30" value="" style="endArrow=classic;html=1;rounded=0;dashed=1;" edge="1" parent="1" source="u-yBkC2X34SG5aHqilfK-31" target="rdwGBLl-BB3dfzOJK9Kl-3">
          <mxGeometry width="50" height="50" relative="1" as="geometry">
            <mxPoint x="-456" y="-905" as="sourcePoint" />
            <mxPoint x="78" y="-120" as="targetPoint" />
            <Array as="points">
              <mxPoint x="-210" y="-870" />
            </Array>
          </mxGeometry>
        </mxCell>
        <mxCell id="rdwGBLl-BB3dfzOJK9Kl-31" value="include" style="edgeLabel;html=1;align=center;verticalAlign=middle;resizable=0;points=[];" vertex="1" connectable="0" parent="rdwGBLl-BB3dfzOJK9Kl-30">
          <mxGeometry x="-0.24" y="2" relative="1" as="geometry">
            <mxPoint as="offset" />
          </mxGeometry>
        </mxCell>
        <mxCell id="u-yBkC2X34SG5aHqilfK-33" value="Conta Poupança" style="ellipse;whiteSpace=wrap;html=1;" parent="1" vertex="1">
          <mxGeometry x="-473" y="-860" width="120" height="80" as="geometry" />
        </mxCell>
        <mxCell id="rdwGBLl-BB3dfzOJK9Kl-39" style="edgeStyle=orthogonalEdgeStyle;rounded=0;orthogonalLoop=1;jettySize=auto;html=1;dashed=1;" edge="1" parent="1" source="rdwGBLl-BB3dfzOJK9Kl-37" target="rdwGBLl-BB3dfzOJK9Kl-1">
          <mxGeometry relative="1" as="geometry" />
        </mxCell>
        <mxCell id="rdwGBLl-BB3dfzOJK9Kl-40" value="include" style="edgeLabel;html=1;align=center;verticalAlign=middle;resizable=0;points=[];" vertex="1" connectable="0" parent="rdwGBLl-BB3dfzOJK9Kl-39">
          <mxGeometry x="-0.0762" relative="1" as="geometry">
            <mxPoint as="offset" />
          </mxGeometry>
        </mxCell>
        <mxCell id="rdwGBLl-BB3dfzOJK9Kl-37" value="Transferência Bancária" style="ellipse;whiteSpace=wrap;html=1;" vertex="1" parent="1">
          <mxGeometry x="-260" y="-410" width="120" height="80" as="geometry" />
        </mxCell>
        <mxCell id="rdwGBLl-BB3dfzOJK9Kl-38" value="" style="endArrow=none;html=1;rounded=0;entryX=0;entryY=0.5;entryDx=0;entryDy=0;exitX=0.5;exitY=0.5;exitDx=0;exitDy=0;exitPerimeter=0;" edge="1" parent="1" source="u-yBkC2X34SG5aHqilfK-1" target="rdwGBLl-BB3dfzOJK9Kl-37">
          <mxGeometry width="50" height="50" relative="1" as="geometry">
            <mxPoint x="190" y="-90" as="sourcePoint" />
            <mxPoint x="240" y="-140" as="targetPoint" />
            <Array as="points">
              <mxPoint x="-610" y="-660" />
              <mxPoint x="-430" y="-620" />
            </Array>
          </mxGeometry>
        </mxCell>
        <mxCell id="rdwGBLl-BB3dfzOJK9Kl-41" value="" style="endArrow=none;html=1;rounded=0;exitX=0.5;exitY=0.5;exitDx=0;exitDy=0;exitPerimeter=0;" edge="1" parent="1" source="u-yBkC2X34SG5aHqilfK-1" target="u-yBkC2X34SG5aHqilfK-27">
          <mxGeometry width="50" height="50" relative="1" as="geometry">
            <mxPoint x="-625" y="-620" as="sourcePoint" />
            <mxPoint x="-98" y="-201" as="targetPoint" />
          </mxGeometry>
        </mxCell>
        <mxCell id="rdwGBLl-BB3dfzOJK9Kl-44" value="" style="endArrow=none;html=1;rounded=0;entryX=0;entryY=0;entryDx=0;entryDy=0;exitX=0.5;exitY=0.5;exitDx=0;exitDy=0;exitPerimeter=0;" edge="1" parent="1" source="u-yBkC2X34SG5aHqilfK-1" target="rdwGBLl-BB3dfzOJK9Kl-2">
          <mxGeometry width="50" height="50" relative="1" as="geometry">
            <mxPoint x="-765" y="-740" as="sourcePoint" />
            <mxPoint x="-102" y="-28" as="targetPoint" />
          </mxGeometry>
        </mxCell>
        <mxCell id="rdwGBLl-BB3dfzOJK9Kl-2" value="Realizar Saque" style="ellipse;whiteSpace=wrap;html=1;" vertex="1" parent="1">
          <mxGeometry x="-600" y="-530" width="120" height="80" as="geometry" />
        </mxCell>
      </root>
    </mxGraphModel>
  </diagram>
</mxfile>
